# xmcd
#
# Track frame offsets: 
#        150
#        23228
#        42230
#        74388
#        93537
#        116096
#        135286
#        160589
#        183203
#        200231
#        219216
#        248424
#        271979
#        291580
#
# Disc length: 4201 seconds
#
# Revision: 0
# Processed by: cddbd v1.5.2PL0 Copyright (c) Steve Scherf et al.
# Submitted via: ExactAudioCopy v0.99pb4
#
DISCID=c810670e
DTITLE=Joe Ely - Live at Antone's [LIVE] 
DYEAR=2000
DGENRE=Alternative
TTITLE0=The Road Goes On Forever
TTITLE1=All Just to Get to You
TTITLE2=Gallo del Cielo
TTITLE3=Ranches and Rivers
TTITLE4=Workin' for the Man
TTITLE5=Me and Billy the Kid
TTITLE6=Up on the Ridge
TTITLE7=Rock Salt and Nails
TTITLE8=Nacho Mama
TTITLE9=Dallas
TTITLE10=Thousand Miles from Home
TTITLE11=Road Hawg
TTITLE12=Everybody Got Hammered
TTITLE13=My Eyes Got Lucky
EXTD=
EXTT0=
EXTT1=
EXTT2=
EXTT3=
EXTT4=
EXTT5=
EXTT6=
EXTT7=
EXTT8=
EXTT9=
EXTT10=
EXTT11=
EXTT12=
EXTT13=
PLAYORDER=
